<svg xmlns="http://www.w3.org/2000/svg" xmlns:xlink="http://www.w3.org/1999/xlink" width="1920" zoomAndPan="magnify" viewBox="0 0 1440 404.99999" height="540" preserveAspectRatio="xMidYMid meet" version="1.0"><defs><g/></defs><g fill="#b3b3f1" fill-opacity="1"><g transform="translate(40.500015, 289.801731)"><g><path d="M 109.71875 -197.140625 C 120.675781 -197.140625 130.796875 -195.820312 140.078125 -193.1875 C 149.367188 -190.550781 158.804688 -186.394531 168.390625 -180.71875 L 175.140625 -186.296875 C 179.835938 -190.015625 183.703125 -192.554688 186.734375 -193.921875 C 189.765625 -195.285156 193.234375 -195.96875 197.140625 -195.96875 C 201.835938 -195.96875 205.554688 -194.941406 208.296875 -192.890625 C 211.035156 -190.835938 212.40625 -187.859375 212.40625 -183.953125 C 212.40625 -182.378906 212.109375 -180.710938 211.515625 -178.953125 L 199.203125 -138.46875 C 197.828125 -133.78125 196.113281 -130.457031 194.0625 -128.5 C 192.007812 -126.539062 188.929688 -125.5625 184.828125 -125.5625 C 180.523438 -125.5625 176.757812 -126.878906 173.53125 -129.515625 C 170.300781 -132.160156 165.265625 -137.59375 158.421875 -145.8125 C 151.578125 -153.632812 145.367188 -159.15625 139.796875 -162.375 C 134.222656 -165.601562 128.5 -167.21875 122.625 -167.21875 C 118.320312 -167.21875 114.703125 -165.800781 111.765625 -162.96875 C 108.835938 -160.132812 107.375 -156.664062 107.375 -152.5625 C 107.375 -147.863281 109.71875 -143.507812 114.40625 -139.5 C 119.101562 -135.488281 126.441406 -130.453125 136.421875 -124.390625 C 146.585938 -118.328125 154.992188 -112.847656 161.640625 -107.953125 C 168.296875 -103.066406 173.96875 -97.003906 178.65625 -89.765625 C 183.351562 -82.535156 185.703125 -74.222656 185.703125 -64.828125 C 185.703125 -58.765625 184.722656 -52.703125 182.765625 -46.640625 C 178.078125 -30.992188 168.984375 -19.113281 155.484375 -11 C 141.992188 -2.882812 126.25 1.171875 108.25 1.171875 C 94.757812 1.171875 83.414062 -0.390625 74.21875 -3.515625 C 65.03125 -6.648438 55.644531 -11.929688 46.0625 -19.359375 L 35.5 -10.5625 C 30.601562 -6.457031 26.59375 -3.671875 23.46875 -2.203125 C 20.34375 -0.734375 16.820312 0 12.90625 0 C 8.40625 0 4.832031 -1.070312 2.1875 -3.21875 C -0.445312 -5.375 -1.765625 -8.3125 -1.765625 -12.03125 C -1.765625 -13.988281 -1.375 -16.039062 -0.59375 -18.1875 L 13.78125 -61.90625 C 15.351562 -66.988281 17.503906 -70.601562 20.234375 -72.75 C 22.972656 -74.90625 26.492188 -75.984375 30.796875 -75.984375 C 35.296875 -75.984375 39.351562 -74.414062 42.96875 -71.28125 C 46.59375 -68.15625 51.335938 -62.488281 57.203125 -54.28125 C 63.460938 -45.28125 69.28125 -39.019531 74.65625 -35.5 C 80.039062 -31.976562 86.445312 -30.21875 93.875 -30.21875 C 99.15625 -30.21875 103.210938 -31.046875 106.046875 -32.703125 C 108.890625 -34.367188 110.894531 -37.0625 112.0625 -40.78125 C 112.457031 -41.757812 112.65625 -43.226562 112.65625 -45.1875 C 112.65625 -49.875 110.40625 -54.171875 105.90625 -58.078125 C 101.40625 -61.992188 94.460938 -66.691406 85.078125 -72.171875 C 75.097656 -78.234375 66.976562 -83.660156 60.71875 -88.453125 C 54.46875 -93.242188 49.039062 -99.253906 44.4375 -106.484375 C 39.84375 -113.722656 37.546875 -122.234375 37.546875 -132.015625 C 37.546875 -138.859375 38.625 -145.609375 40.78125 -152.265625 C 44.882812 -165.753906 53.289062 -176.601562 66 -184.8125 C 78.71875 -193.03125 93.289062 -197.140625 109.71875 -197.140625 Z M 109.71875 -197.140625 "/></g></g></g><g fill="#b3b3f1" fill-opacity="1"><g transform="translate(242.633996, 289.801731)"><g><path d="M 155.484375 -155.203125 C 164.085938 -155.203125 170.984375 -151.726562 176.171875 -144.78125 C 181.359375 -137.832031 183.953125 -128.394531 183.953125 -116.46875 C 183.953125 -106.101562 182.09375 -94.957031 178.375 -83.03125 C 171.132812 -58.96875 159.546875 -36.273438 143.609375 -14.953125 C 127.671875 6.359375 109.382812 23.46875 88.75 36.375 C 68.113281 49.28125 47.523438 55.734375 26.984375 55.734375 C 16.816406 55.734375 8.066406 53.972656 0.734375 50.453125 C -6.597656 46.941406 -12.171875 42.25 -15.984375 36.375 C -19.796875 30.507812 -21.703125 24.253906 -21.703125 17.609375 C -21.703125 14.671875 -21.21875 11.441406 -20.25 7.921875 C -18.488281 2.441406 -15.550781 -1.757812 -11.4375 -4.6875 C -7.332031 -7.625 -2.441406 -9.09375 3.234375 -9.09375 C 12.222656 -9.09375 19.601562 -6.015625 25.375 0.140625 C 31.144531 6.304688 34.8125 14.769531 36.375 25.53125 C 48.894531 24.9375 60.4375 19.554688 71 9.390625 C 61.019531 7.628906 53.632812 4.253906 48.84375 -0.734375 C 44.050781 -5.722656 40.773438 -13.5 39.015625 -24.0625 L 27.28125 -95.9375 C 26.695312 -99.644531 25.863281 -102.234375 24.78125 -103.703125 C 23.707031 -105.171875 22.289062 -105.90625 20.53125 -105.90625 C 19.164062 -105.90625 17.550781 -105.21875 15.6875 -103.84375 C 13.832031 -102.476562 12.515625 -101.796875 11.734375 -101.796875 C 10.171875 -101.796875 9.390625 -103.457031 9.390625 -106.78125 C 9.390625 -109.519531 9.878906 -112.457031 10.859375 -115.59375 C 14.378906 -126.738281 20.929688 -136.171875 30.515625 -143.890625 C 40.097656 -151.617188 51.242188 -155.484375 63.953125 -155.484375 C 76.472656 -155.484375 85.710938 -151.765625 91.671875 -144.328125 C 97.640625 -136.898438 101.503906 -125.460938 103.265625 -110.015625 L 112.0625 -45.46875 C 112.65625 -40.582031 114.414062 -38.140625 117.34375 -38.140625 C 120.863281 -38.140625 124.972656 -41.316406 129.671875 -47.671875 C 134.367188 -54.023438 138.960938 -63.070312 143.453125 -74.8125 C 137.585938 -80.09375 133.085938 -86.15625 129.953125 -93 C 126.828125 -99.84375 125.265625 -107.175781 125.265625 -115 C 125.265625 -121.0625 126.050781 -126.539062 127.625 -131.4375 C 129.96875 -139.257812 133.628906 -145.175781 138.609375 -149.1875 C 143.597656 -153.195312 149.222656 -155.203125 155.484375 -155.203125 Z M 155.484375 -155.203125 "/></g></g></g><g fill="#b3b3f1" fill-opacity="1"><g transform="translate(424.525245, 289.801731)"><g><path d="M 93.59375 -216.796875 C 104.9375 -216.796875 113.296875 -214.644531 118.671875 -210.34375 C 124.046875 -206.039062 126.734375 -200.175781 126.734375 -192.75 C 126.734375 -188.445312 126.050781 -184.238281 124.6875 -180.125 L 78.625 -30.515625 C 78.039062 -28.160156 77.75 -26.101562 77.75 -24.34375 C 77.75 -21.800781 78.234375 -19.796875 79.203125 -18.328125 C 80.179688 -16.867188 81.550781 -15.453125 83.3125 -14.078125 C 84.6875 -12.710938 85.664062 -11.585938 86.25 -10.703125 C 86.832031 -9.828125 86.929688 -8.703125 86.546875 -7.328125 C 85.566406 -4.785156 83.609375 -2.925781 80.671875 -1.75 C 77.742188 -0.582031 73.25 0 67.1875 0 L 0.296875 0 C -4.785156 0 -8.5 -0.828125 -10.84375 -2.484375 C -13.195312 -4.148438 -13.984375 -6.351562 -13.203125 -9.09375 C -12.421875 -11.4375 -10.367188 -13.488281 -7.046875 -15.25 C -4.109375 -16.820312 -1.660156 -18.679688 0.296875 -20.828125 C 2.253906 -22.984375 3.914062 -26.40625 5.28125 -31.09375 L 49.875 -177.484375 C 50.457031 -179.242188 50.75 -180.710938 50.75 -181.890625 C 50.75 -184.046875 50.210938 -185.804688 49.140625 -187.171875 C 48.066406 -188.546875 46.648438 -189.914062 44.890625 -191.28125 C 42.929688 -192.84375 41.507812 -194.207031 40.625 -195.375 C 39.75 -196.550781 39.601562 -198.117188 40.1875 -200.078125 C 41.363281 -204.578125 47.523438 -208.488281 58.671875 -211.8125 C 69.816406 -215.132812 81.457031 -216.796875 93.59375 -216.796875 Z M 93.59375 -216.796875 "/></g></g></g><g fill="#b3b3f1" fill-opacity="1"><g transform="translate(531.899764, 289.801731)"><g><path d="M 93.59375 -216.796875 C 104.9375 -216.796875 113.296875 -214.644531 118.671875 -210.34375 C 124.046875 -206.039062 126.734375 -200.175781 126.734375 -192.75 C 126.734375 -188.445312 126.050781 -184.238281 124.6875 -180.125 L 78.625 -30.515625 C 78.039062 -28.160156 77.75 -26.101562 77.75 -24.34375 C 77.75 -21.800781 78.234375 -19.796875 79.203125 -18.328125 C 80.179688 -16.867188 81.550781 -15.453125 83.3125 -14.078125 C 84.6875 -12.710938 85.664062 -11.585938 86.25 -10.703125 C 86.832031 -9.828125 86.929688 -8.703125 86.546875 -7.328125 C 85.566406 -4.785156 83.609375 -2.925781 80.671875 -1.75 C 77.742188 -0.582031 73.25 0 67.1875 0 L 0.296875 0 C -4.785156 0 -8.5 -0.828125 -10.84375 -2.484375 C -13.195312 -4.148438 -13.984375 -6.351562 -13.203125 -9.09375 C -12.421875 -11.4375 -10.367188 -13.488281 -7.046875 -15.25 C -4.109375 -16.820312 -1.660156 -18.679688 0.296875 -20.828125 C 2.253906 -22.984375 3.914062 -26.40625 5.28125 -31.09375 L 49.875 -177.484375 C 50.457031 -179.242188 50.75 -180.710938 50.75 -181.890625 C 50.75 -184.046875 50.210938 -185.804688 49.140625 -187.171875 C 48.066406 -188.546875 46.648438 -189.914062 44.890625 -191.28125 C 42.929688 -192.84375 41.507812 -194.207031 40.625 -195.375 C 39.75 -196.550781 39.601562 -198.117188 40.1875 -200.078125 C 41.363281 -204.578125 47.523438 -208.488281 58.671875 -211.8125 C 69.816406 -215.132812 81.457031 -216.796875 93.59375 -216.796875 Z M 93.59375 -216.796875 "/></g></g></g><g fill="#b3b3f1" fill-opacity="1"><g transform="translate(639.274283, 289.801731)"><g><path d="M 104.734375 -155.203125 C 127.222656 -155.203125 145.210938 -151.046875 158.703125 -142.734375 C 172.203125 -134.421875 178.953125 -121.753906 178.953125 -104.734375 C 178.953125 -98.273438 177.78125 -90.941406 175.4375 -82.734375 L 163.40625 -42.25 C 163.207031 -41.46875 163.109375 -40.488281 163.109375 -39.3125 C 163.109375 -36.1875 164.382812 -34.625 166.9375 -34.625 C 169.28125 -34.625 171.28125 -35.648438 172.9375 -37.703125 C 174.601562 -39.753906 175.726562 -40.78125 176.3125 -40.78125 C 177.289062 -40.78125 178.125 -40.09375 178.8125 -38.71875 C 179.5 -37.351562 179.84375 -35.789062 179.84375 -34.03125 C 180.03125 -28.75 178.019531 -23.367188 173.8125 -17.890625 C 169.613281 -12.421875 163.992188 -7.925781 156.953125 -4.40625 C 149.910156 -0.882812 142.1875 0.875 133.78125 0.875 C 123.613281 0.875 114.910156 -0.976562 107.671875 -4.6875 C 100.429688 -8.40625 95.441406 -13.882812 92.703125 -21.125 C 86.835938 -14.082031 79.894531 -8.65625 71.875 -4.84375 C 63.851562 -1.03125 55.25 0.875 46.0625 0.875 C 35.695312 0.875 26.992188 -1.125 19.953125 -5.125 C 12.910156 -9.132812 7.675781 -14.316406 4.25 -20.671875 C 0.832031 -27.035156 -0.875 -33.738281 -0.875 -40.78125 C -0.875 -43.90625 -0.582031 -46.9375 0 -49.875 C 3.125 -63.363281 9.914062 -73.53125 20.375 -80.375 C 30.84375 -87.226562 43.316406 -90.65625 57.796875 -90.65625 C 74.023438 -90.65625 89.960938 -88.113281 105.609375 -83.03125 L 112.953125 -102.390625 C 115.492188 -110.597656 116.765625 -116.953125 116.765625 -121.453125 C 116.566406 -126.148438 115 -129.671875 112.0625 -132.015625 C 109.132812 -134.367188 104.640625 -135.546875 98.578125 -135.546875 C 99.742188 -132.410156 100.328125 -129.179688 100.328125 -125.859375 C 100.328125 -118.617188 97.585938 -112.359375 92.109375 -107.078125 C 86.640625 -101.796875 78.820312 -99.15625 68.65625 -99.15625 C 59.070312 -99.15625 51.585938 -101.257812 46.203125 -105.46875 C 40.828125 -109.675781 38.140625 -114.90625 38.140625 -121.15625 C 38.140625 -130.9375 43.613281 -139.054688 54.5625 -145.515625 C 65.519531 -151.972656 82.242188 -155.203125 104.734375 -155.203125 Z M 88.3125 -66.296875 C 82.832031 -66.296875 78.378906 -64.191406 74.953125 -59.984375 C 71.535156 -55.785156 69.828125 -51.242188 69.828125 -46.359375 C 69.828125 -43.222656 70.554688 -40.675781 72.015625 -38.71875 C 73.484375 -36.769531 75.585938 -35.796875 78.328125 -35.796875 C 80.867188 -35.796875 83.65625 -36.820312 86.6875 -38.875 C 89.71875 -40.925781 91.921875 -44.003906 93.296875 -48.109375 L 99.453125 -65.421875 C 96.128906 -66.003906 92.414062 -66.296875 88.3125 -66.296875 Z M 88.3125 -66.296875 "/></g></g></g><g fill="#b3b3f1" fill-opacity="1"><g transform="translate(831.14022, 289.801731)"><g><path d="M 102.96875 -158.421875 C 103.363281 -159.597656 103.5625 -161.160156 103.5625 -163.109375 C 103.5625 -166.242188 102.726562 -168.785156 101.0625 -170.734375 C 99.40625 -172.691406 96.816406 -174.847656 93.296875 -177.203125 C 90.359375 -179.347656 88.253906 -181.203125 86.984375 -182.765625 C 85.710938 -184.335938 85.367188 -186.195312 85.953125 -188.34375 C 86.546875 -191.082031 88.015625 -192.941406 90.359375 -193.921875 C 92.703125 -194.898438 96.414062 -195.390625 101.5 -195.390625 L 184.828125 -195.390625 C 188.929688 -195.390625 192.109375 -194.703125 194.359375 -193.328125 C 196.609375 -191.960938 197.734375 -190.203125 197.734375 -188.046875 C 197.734375 -187.078125 197.441406 -185.804688 196.859375 -184.234375 C 196.265625 -182.867188 195.429688 -181.644531 194.359375 -180.5625 C 193.285156 -179.488281 192.304688 -178.707031 191.421875 -178.21875 C 190.546875 -177.726562 189.910156 -177.289062 189.515625 -176.90625 C 186.390625 -175.144531 183.847656 -173.1875 181.890625 -171.03125 C 179.929688 -168.882812 178.269531 -165.5625 176.90625 -161.0625 L 148.15625 -59.5625 C 142.289062 -38.820312 132.316406 -23.414062 118.234375 -13.34375 C 104.148438 -3.269531 85.863281 1.765625 63.375 1.765625 C 48.3125 1.765625 35.546875 -0.429688 25.078125 -4.828125 C 14.617188 -9.234375 6.75 -15.148438 1.46875 -22.578125 C -3.8125 -30.015625 -6.453125 -38.132812 -6.453125 -46.9375 C -6.453125 -51.238281 -5.863281 -55.445312 -4.6875 -59.5625 C -2.144531 -68.351562 2.203125 -75 8.359375 -79.5 C 14.523438 -84 21.421875 -86.25 29.046875 -86.25 C 37.847656 -86.25 44.59375 -83.609375 49.28125 -78.328125 C 53.976562 -73.046875 56.328125 -66.300781 56.328125 -58.09375 C 56.328125 -53.976562 55.738281 -49.867188 54.5625 -45.765625 C 52.21875 -37.546875 47.816406 -31.484375 41.359375 -27.578125 C 44.492188 -25.617188 48.113281 -24.640625 52.21875 -24.640625 C 56.320312 -24.640625 59.9375 -26.691406 63.0625 -30.796875 C 66.195312 -34.910156 68.84375 -40.679688 71 -48.109375 Z M 102.96875 -158.421875 "/></g></g></g><g fill="#b3b3f1" fill-opacity="1"><g transform="translate(1004.230287, 289.801731)"><g><path d="M 104.734375 -155.203125 C 127.222656 -155.203125 145.210938 -151.046875 158.703125 -142.734375 C 172.203125 -134.421875 178.953125 -121.753906 178.953125 -104.734375 C 178.953125 -98.273438 177.78125 -90.941406 175.4375 -82.734375 L 163.40625 -42.25 C 163.207031 -41.46875 163.109375 -40.488281 163.109375 -39.3125 C 163.109375 -36.1875 164.382812 -34.625 166.9375 -34.625 C 169.28125 -34.625 171.28125 -35.648438 172.9375 -37.703125 C 174.601562 -39.753906 175.726562 -40.78125 176.3125 -40.78125 C 177.289062 -40.78125 178.125 -40.09375 178.8125 -38.71875 C 179.5 -37.351562 179.84375 -35.789062 179.84375 -34.03125 C 180.03125 -28.75 178.019531 -23.367188 173.8125 -17.890625 C 169.613281 -12.421875 163.992188 -7.925781 156.953125 -4.40625 C 149.910156 -0.882812 142.1875 0.875 133.78125 0.875 C 123.613281 0.875 114.910156 -0.976562 107.671875 -4.6875 C 100.429688 -8.40625 95.441406 -13.882812 92.703125 -21.125 C 86.835938 -14.082031 79.894531 -8.65625 71.875 -4.84375 C 63.851562 -1.03125 55.25 0.875 46.0625 0.875 C 35.695312 0.875 26.992188 -1.125 19.953125 -5.125 C 12.910156 -9.132812 7.675781 -14.316406 4.25 -20.671875 C 0.832031 -27.035156 -0.875 -33.738281 -0.875 -40.78125 C -0.875 -43.90625 -0.582031 -46.9375 0 -49.875 C 3.125 -63.363281 9.914062 -73.53125 20.375 -80.375 C 30.84375 -87.226562 43.316406 -90.65625 57.796875 -90.65625 C 74.023438 -90.65625 89.960938 -88.113281 105.609375 -83.03125 L 112.953125 -102.390625 C 115.492188 -110.597656 116.765625 -116.953125 116.765625 -121.453125 C 116.566406 -126.148438 115 -129.671875 112.0625 -132.015625 C 109.132812 -134.367188 104.640625 -135.546875 98.578125 -135.546875 C 99.742188 -132.410156 100.328125 -129.179688 100.328125 -125.859375 C 100.328125 -118.617188 97.585938 -112.359375 92.109375 -107.078125 C 86.640625 -101.796875 78.820312 -99.15625 68.65625 -99.15625 C 59.070312 -99.15625 51.585938 -101.257812 46.203125 -105.46875 C 40.828125 -109.675781 38.140625 -114.90625 38.140625 -121.15625 C 38.140625 -130.9375 43.613281 -139.054688 54.5625 -145.515625 C 65.519531 -151.972656 82.242188 -155.203125 104.734375 -155.203125 Z M 88.3125 -66.296875 C 82.832031 -66.296875 78.378906 -64.191406 74.953125 -59.984375 C 71.535156 -55.785156 69.828125 -51.242188 69.828125 -46.359375 C 69.828125 -43.222656 70.554688 -40.675781 72.015625 -38.71875 C 73.484375 -36.769531 75.585938 -35.796875 78.328125 -35.796875 C 80.867188 -35.796875 83.65625 -36.820312 86.6875 -38.875 C 89.71875 -40.925781 91.921875 -44.003906 93.296875 -48.109375 L 99.453125 -65.421875 C 96.128906 -66.003906 92.414062 -66.296875 88.3125 -66.296875 Z M 88.3125 -66.296875 "/></g></g></g><g fill="#b3b3f1" fill-opacity="1"><g transform="translate(1196.096224, 289.801731)"><g><path d="M 155.484375 -155.203125 C 164.085938 -155.203125 170.984375 -151.726562 176.171875 -144.78125 C 181.359375 -137.832031 183.953125 -128.394531 183.953125 -116.46875 C 183.953125 -106.101562 182.09375 -94.957031 178.375 -83.03125 C 171.132812 -58.96875 159.546875 -36.273438 143.609375 -14.953125 C 127.671875 6.359375 109.382812 23.46875 88.75 36.375 C 68.113281 49.28125 47.523438 55.734375 26.984375 55.734375 C 16.816406 55.734375 8.066406 53.972656 0.734375 50.453125 C -6.597656 46.941406 -12.171875 42.25 -15.984375 36.375 C -19.796875 30.507812 -21.703125 24.253906 -21.703125 17.609375 C -21.703125 14.671875 -21.21875 11.441406 -20.25 7.921875 C -18.488281 2.441406 -15.550781 -1.757812 -11.4375 -4.6875 C -7.332031 -7.625 -2.441406 -9.09375 3.234375 -9.09375 C 12.222656 -9.09375 19.601562 -6.015625 25.375 0.140625 C 31.144531 6.304688 34.8125 14.769531 36.375 25.53125 C 48.894531 24.9375 60.4375 19.554688 71 9.390625 C 61.019531 7.628906 53.632812 4.253906 48.84375 -0.734375 C 44.050781 -5.722656 40.773438 -13.5 39.015625 -24.0625 L 27.28125 -95.9375 C 26.695312 -99.644531 25.863281 -102.234375 24.78125 -103.703125 C 23.707031 -105.171875 22.289062 -105.90625 20.53125 -105.90625 C 19.164062 -105.90625 17.550781 -105.21875 15.6875 -103.84375 C 13.832031 -102.476562 12.515625 -101.796875 11.734375 -101.796875 C 10.171875 -101.796875 9.390625 -103.457031 9.390625 -106.78125 C 9.390625 -109.519531 9.878906 -112.457031 10.859375 -115.59375 C 14.378906 -126.738281 20.929688 -136.171875 30.515625 -143.890625 C 40.097656 -151.617188 51.242188 -155.484375 63.953125 -155.484375 C 76.472656 -155.484375 85.710938 -151.765625 91.671875 -144.328125 C 97.640625 -136.898438 101.503906 -125.460938 103.265625 -110.015625 L 112.0625 -45.46875 C 112.65625 -40.582031 114.414062 -38.140625 117.34375 -38.140625 C 120.863281 -38.140625 124.972656 -41.316406 129.671875 -47.671875 C 134.367188 -54.023438 138.960938 -63.070312 143.453125 -74.8125 C 137.585938 -80.09375 133.085938 -86.15625 129.953125 -93 C 126.828125 -99.84375 125.265625 -107.175781 125.265625 -115 C 125.265625 -121.0625 126.050781 -126.539062 127.625 -131.4375 C 129.96875 -139.257812 133.628906 -145.175781 138.609375 -149.1875 C 143.597656 -153.195312 149.222656 -155.203125 155.484375 -155.203125 Z M 155.484375 -155.203125 "/></g></g></g></svg>